#N canvas 259 329 1157 920 10;
#X floatatom 351 263 5 0 0 0 - - -;
#X obj 70 161 noise~;
#X obj 349 207 mtof;
#X obj 140 436 hsl 128 15 0 1 0 1 empty empty empty -2 -8 0 10 -262144
-1 -1 4100 1;
#X obj 144 479 pack 0 20;
#X obj 144 503 line~;
#X obj 67 443 *~;
#X obj 68 496 dac~;
#X obj 309 106 t b b f;
#X text 435 262 delay length sets pitch;
#X text 385 204 converts midi notes to hz;
#X obj 351 234 expr 1000 / $f1;
#X text 466 230 converts period to milliseconds;
#N canvas 46 43 1047 465 select_sequencer 0;
#X obj 122 59 f;
#X obj 91 -32 inlet;
#X obj 186 -29 inlet;
#X msg 52 249 57;
#X msg 6 250 45;
#X msg 207 249 72;
#X msg 95 249 45;
#X obj 248 324 outlet;
#X msg 138 251 57;
#X text 226 57 this is a simple counter;
#X text 584 172 this sends a bang from the outlet that matches the
input;
#X text 590 225 midi notes;
#X text 679 227 there could be a note for each number;
#X obj 91 -2 t f b;
#X msg 90 28 0;
#X msg 241 251 77;
#X msg 173 250 80;
#X msg 279 249 82;
#X obj 122 148 mod 32;
#X obj 117 183 sel 0 1 2 3 4 5 6 7 8 9 10 11 12 13 14 15 16 17 18 19
20 21 22 23 24 25 26 27 28 29 30 31;
#X msg 317 249 45;
#X msg 351 248 84;
#X msg 388 250 82;
#X msg 428 249 80;
#X msg 465 250 82;
#X msg 503 251 84;
#X msg 541 252 85;
#X text 176 149 this makes the counter loop every 32 numbers - change
to make longer or shorter;
#X obj 122 23 metro 250;
#X obj 169 60 + 1.1;
#X connect 0 0 18 0;
#X connect 0 0 29 0;
#X connect 1 0 13 0;
#X connect 2 0 28 1;
#X connect 3 0 7 0;
#X connect 4 0 7 0;
#X connect 5 0 7 0;
#X connect 6 0 7 0;
#X connect 8 0 7 0;
#X connect 13 0 28 0;
#X connect 13 1 14 0;
#X connect 14 0 0 1;
#X connect 15 0 7 0;
#X connect 16 0 7 0;
#X connect 17 0 7 0;
#X connect 18 0 19 0;
#X connect 19 0 4 0;
#X connect 19 3 3 0;
#X connect 19 4 6 0;
#X connect 19 7 8 0;
#X connect 19 8 16 0;
#X connect 19 11 5 0;
#X connect 19 12 15 0;
#X connect 19 15 17 0;
#X connect 19 16 20 0;
#X connect 19 19 21 0;
#X connect 19 20 22 0;
#X connect 19 23 23 0;
#X connect 19 24 24 0;
#X connect 19 27 25 0;
#X connect 19 28 26 0;
#X connect 20 0 7 0;
#X connect 21 0 7 0;
#X connect 22 0 7 0;
#X connect 23 0 7 0;
#X connect 24 0 7 0;
#X connect 25 0 7 0;
#X connect 26 0 7 0;
#X connect 28 0 0 0;
#X connect 29 0 0 1;
#X restore 298 58 pd select_sequencer;
#X obj 290 21 tgl 15 0 empty empty empty 17 7 0 10 -262144 -1 -1 0
1;
#X floatatom 414 25 5 0 0 0 - - -;
#X text 465 25 change tempo;
#X text 195 18 start/stop;
#X text 461 58 right click and select open to see inside;
#N canvas 1119 349 715 631 delay 0;
#X obj -24 185 z~;
#X obj 13 183 z~ 2;
#X obj -2 218 +~;
#X obj -2 244 *~ 0.5;
#X obj -1 278 *~ 0.99;
#X obj -393 269 inlet~;
#X obj -5 487 outlet~;
#X obj -325 129 block~ 1;
#X obj -392 427 +~;
#X text -338 157 reducing block size to 1 allows for shorter delays
;
#X obj -195 93 inlet;
#X msg -221 309 0;
#X obj -393 342 *~;
#X msg -265 308 1;
#X obj -244 222 t b b f;
#X obj -221 281 del 8;
#X floatatom -184 254 5 0 0 0 - - -;
#X obj 3 21 inlet;
#X obj 77 267 inlet hiQ;
#X obj 0 323 lop~ 20000;
#X obj -393 464 delwrite~ \$0-buff2 1000;
#X obj -3 153 vd~ \$0-buff2;
#X obj 9 119 line~;
#X msg 9 63 \$1 2;
#X connect 0 0 2 0;
#X connect 1 0 2 1;
#X connect 2 0 3 0;
#X connect 3 0 4 0;
#X connect 4 0 19 0;
#X connect 5 0 12 0;
#X connect 8 0 20 0;
#X connect 10 0 14 0;
#X connect 11 0 12 1;
#X connect 12 0 8 0;
#X connect 13 0 12 1;
#X connect 14 0 13 0;
#X connect 14 1 15 0;
#X connect 15 0 11 0;
#X connect 16 0 15 1;
#X connect 17 0 23 0;
#X connect 18 0 19 1;
#X connect 19 0 8 1;
#X connect 19 0 6 0;
#X connect 21 0 0 0;
#X connect 21 0 1 0;
#X connect 22 0 21 0;
#X connect 23 0 22 0;
#X restore 66 360 pd delay;
#X text 142 356 delay loop is in a subpatch to get shorter than 64
samples;
#X text 440 275 ****;
#X text 288 159 change pulse length;
#X msg 214 242 1000;
#X floatatom 214 272 5 0 0 0 - - -;
#X msg 251 242 22050;
#X obj 320 19 loadbang1 1;
#X connect 0 0 19 2;
#X connect 1 0 19 0;
#X connect 2 0 11 0;
#X connect 3 0 4 0;
#X connect 4 0 5 0;
#X connect 5 0 6 1;
#X connect 6 0 7 0;
#X connect 6 0 7 1;
#X connect 8 0 19 1;
#X connect 8 2 2 0;
#X connect 11 0 0 0;
#X connect 13 0 8 0;
#X connect 14 0 13 0;
#X connect 15 0 13 1;
#X connect 19 0 6 0;
#X connect 23 0 24 0;
#X connect 24 0 19 3;
#X connect 25 0 24 0;
#X connect 26 0 14 0;
