#N canvas 878 22 1194 1068 10;
#X msg 192 135 set 0.36 475.5 7600 0.001 0.001 7 0.7 0.5;
#X msg 513 96 set 1 100 1000 0.001 1 9 1 1;
#X msg 385 356 0.36 475.5 7600 0.001 0.001 0.7 0.5;
#X text 389 175 set message args: length \, tension \, density \, radius
youngVAL \, youngEXP \, freq-loss \, const-loss;
#X text 310 847 the two young numbers are: youngVAL * pow(10 \, youngEXP)
so for 1.5e+10 \; youngVAL = 1.5 \; youngEXP = 10 (always int) \;;
#X obj 78 347 dac~;
#X obj 74 316 gain2~;
#X obj 18 214 vsl 20 128 -99 18 0 1 \$0-gain empty gain -7 -18 0 14
-260760 -1 -1 10500 1;
#X floatatom 24 373 5 0 0 1 _db - -;
#X msg 59 454 \; pd dsp 1;
#X floatatom 204 256 5 0 0 0 - - -;
#X obj 72 20 bng 15 250 50 0 empty empty empty 0 -6 0 8 -262144 -1
-1;
#X floatatom 189 465 5 0 0 0 length - -;
#X obj 103 151 r toStrang;
#X obj 184 673 s toStrang;
#X floatatom 233 480 5 0 0 0 tension - -;
#X floatatom 248 498 5 0 0 0 density - -;
#X floatatom 276 518 5 0 0 0 radius - -;
#X floatatom 339 518 7 0 0 0 young - -;
#X floatatom 383 538 5 0 0 0 fq_loss - -;
#X floatatom 461 552 5 0 0 0 const_loss - -;
#X obj 179 13 tgl 15 0 empty empty empty 0 -6 0 8 -262144 -1 -1 1 1
;
#X obj 131 566 bng 15 250 50 0 empty empty empty 0 -6 0 8 -262144 -1
-1;
#X msg 60 499 \; pd dsp 0;
#X msg 265 69 2 1095 8422 0.002 53 7 2 0.2;
#X msg 270 269 clear;
#X msg 205 324 set 0.36 475.5 7600 0.001 0.001 0.7 0.5;
#X msg 206 741 1.8 419.79 5408 0.001 1025 9 0.98 0.4;
#X obj 527 326 s toStrang;
#X floatatom 480 236 5 0 0 0 - - -;
#X floatatom 168 105 5 0 0 0 - - -;
#X obj 181 39 metro 300;
#X msg 467 279 set \$1 300 1000 0.001 1 9 0.05 0.03;
#X floatatom 208 173 5 0 0 0 - - -;
#X obj 72 122 click~;
#X msg 626 579 set 0.43 193.5 5745 0.001 41 9 0.7 0.5;
#X msg 636 527 set 1.8 419.79 5408 0.001 1025 9 0.15 1.33;
#X msg 626 558 set 1.8 419.79 5408 0.001 1025 9 0.15 0.64;
#X msg 590 501 set 1.8 419.79 5408 0.001 1025 9 1 0.68;
#X msg 668 644 set 1.79 65.79 825 0.001 311 9 0.12 0.28;
#X msg 797 705 set 1.97 491.79 886 0.00172 1066.52 9 0.12 0.28;
#X obj 15 150 *~ 10000;
#X msg 640 801 set 1.97 693.01 876 0.00097 800 9 0.12 0.1;
#X text 745 817 for clip;
#X obj 174 369 r toStrangGUI;
#X obj 187 621 pack 0 0 0 0 0 9 0 0;
#X obj 749 875 s toStrangGUI;
#X obj 739 845 route set;
#X obj 190 412 unpack 0 0 0 0 0 0 0 0;
#X msg 178 649 set \$1 \$2 \$3 \$4 \$5 \$6 \$7 \$8;
#X obj 114 225 strang~ 128;
#X obj 284 463 * 100000;
#X obj 262 576 * 1e-05;
#X msg 825 762 1.8 419.79 5878 0.00052 1011 9 0.1 0.64;
#X msg 825 725 1.8 419.79 5408 0.001 1025 9 1 0.68;
#X connect 0 0 50 0;
#X connect 1 0 50 0;
#X connect 6 0 5 0;
#X connect 6 0 5 1;
#X connect 7 0 8 0;
#X connect 7 0 6 1;
#X connect 11 0 34 0;
#X connect 12 0 22 0;
#X connect 12 0 45 0;
#X connect 13 0 50 0;
#X connect 15 0 22 0;
#X connect 15 0 45 1;
#X connect 16 0 22 0;
#X connect 16 0 45 2;
#X connect 17 0 22 0;
#X connect 17 0 52 0;
#X connect 18 0 22 0;
#X connect 18 0 45 4;
#X connect 19 0 22 0;
#X connect 19 0 45 6;
#X connect 20 0 22 0;
#X connect 20 0 45 7;
#X connect 21 0 31 0;
#X connect 22 0 45 0;
#X connect 24 0 48 0;
#X connect 25 0 50 0;
#X connect 26 0 50 0;
#X connect 29 0 32 0;
#X connect 30 0 50 1;
#X connect 31 0 11 0;
#X connect 32 0 28 0;
#X connect 33 0 50 2;
#X connect 34 0 41 0;
#X connect 35 0 47 0;
#X connect 36 0 47 0;
#X connect 37 0 47 0;
#X connect 38 0 47 0;
#X connect 39 0 47 0;
#X connect 40 0 47 0;
#X connect 41 0 50 0;
#X connect 42 0 47 0;
#X connect 44 0 48 0;
#X connect 45 0 49 0;
#X connect 47 0 46 0;
#X connect 48 0 12 0;
#X connect 48 1 15 0;
#X connect 48 2 16 0;
#X connect 48 3 51 0;
#X connect 48 4 18 0;
#X connect 48 6 19 0;
#X connect 48 7 20 0;
#X connect 49 0 14 0;
#X connect 49 0 27 0;
#X connect 50 0 6 0;
#X connect 50 1 10 0;
#X connect 51 0 17 0;
#X connect 52 0 45 3;
#X connect 53 0 46 0;
#X connect 54 0 46 0;
