#N canvas 616 52 415 397 10;
#X obj 128 26 dac~ 1 2;
#X obj 126 -1 gain2~ 10.2341;
#X obj 164 -23 sharedval \$0-outputGain;
#X obj 55 -132 metro 300;
#X obj 54 -157 tgl 15 0 empty empty empty 17 7 0 10 -262144 -1 -1 1
1;
#X obj 334 -123 vsl 20 128 -99 18 0 1 \$0-outputGain \$0-outputGain-set
gain -7 -18 0 14 -257985 -1 -1 10500 1;
#X obj 30 -27 vu1~;
#N canvas 0 22 725 554 instance 0;
#X obj 59 60 zk-strang;
#X obj 58 32 f 1;
#X floatatom 84 30 5 0 0 0 - - -;
#X obj 69 462 throw~ \$0-outsig;
#X obj 128 32 r \$0-bang;
#X connect 0 0 3 0;
#X connect 1 0 0 0;
#X connect 2 0 1 1;
#X connect 4 0 1 0;
#X restore 166 -55 pd instance;
#X obj 223 69 catch~ \$0-outsig;
#X obj 14 -117 s \$0-bang;
#N canvas -1 21 725 554 instance 0;
#X obj 59 60 zk-strang;
#X obj 58 32 f 1;
#X floatatom 84 30 5 0 0 0 - - -;
#X obj 69 462 throw~ \$0-outsig;
#X obj 128 32 r \$0-bang;
#X connect 0 0 3 0;
#X connect 1 0 0 0;
#X connect 2 0 1 1;
#X connect 4 0 1 0;
#X restore 166 -77 pd instance;
#X connect 1 0 0 0;
#X connect 1 0 0 1;
#X connect 1 0 6 0;
#X connect 2 0 1 1;
#X connect 3 0 9 0;
#X connect 4 0 3 0;
#X connect 8 0 1 0;
