#N canvas 39 235 645 615 10;
#X obj 23 32 vsl 15 127 0.1 100 1 1 \$0-length \$0-length-set length
-12 -10 1 12 -4 -262144 -1 5262 0;
#X obj 75 31 vsl 15 127 100 10000 0 1 \$0-tension \$0-tension-set tension
-12 -10 1 12 -4 -262144 -1 0 0;
#X obj 138 31 vsl 15 127 100 9999 0 1 \$0-density \$0-density-set density
-12 -10 1 12 -4 -262144 -1 923 0;
#X obj 198 31 vsl 15 127 0.0097 0.002 0 1 \$0-radius \$0-radius-set
radius -12 -10 1 12 -4 -262144 -1 12600 0;
#N canvas 31 58 1494 1131 DSP 0;
#X floatatom 182 247 5 0 0 0 - - -;
#X obj 60 4 r \$0-strang;
#X msg 380 441 set \$1 \$2 \$3 \$4 \$5 9 \$6 \$7;
#X obj 379 476 s \$0-strang;
#N canvas 0 22 905 489 hot-pack--------------- 0;
#X obj 281 25 inlet;
#X obj 298 48 inlet;
#X obj 316 73 inlet;
#X obj 333 96 inlet;
#X obj 350 121 inlet;
#X obj 367 144 inlet;
#X obj 385 169 inlet;
#X obj 402 192 inlet;
#X obj 420 215 inlet;
#X obj 437 238 inlet;
#X obj 450 263 inlet;
#X obj 264 352 pack 0 0 0 0 0 0 0 0 0 0 0 0 0;
#X obj 469 290 inlet;
#X obj 200 257 t b;
#X obj 264 421 outlet;
#X msg 381 451 \$2 \$3 \$4 \$5 \$6 \$7 \$8 \$9 \$10 \$11 \$12 \$13
;
#X obj 200 281 del 5;
#X msg 265 388 \$2 \$3 \$4 \$5 \$6 \$7 \$8 \$9;
#X connect 0 0 11 1;
#X connect 0 0 13 0;
#X connect 1 0 11 2;
#X connect 1 0 13 0;
#X connect 2 0 11 3;
#X connect 2 0 13 0;
#X connect 3 0 11 4;
#X connect 3 0 13 0;
#X connect 4 0 11 5;
#X connect 4 0 13 0;
#X connect 5 0 11 6;
#X connect 5 0 13 0;
#X connect 6 0 11 7;
#X connect 6 0 13 0;
#X connect 7 0 11 8;
#X connect 7 0 13 0;
#X connect 8 0 11 9;
#X connect 8 0 13 0;
#X connect 9 0 11 10;
#X connect 9 0 13 0;
#X connect 10 0 11 11;
#X connect 10 0 13 0;
#X connect 11 0 17 0;
#X connect 12 0 11 12;
#X connect 12 0 13 0;
#X connect 13 0 16 0;
#X connect 16 0 11 0;
#X connect 17 0 14 0;
#X restore 332 416 pd hot-pack---------------;
#X msg 987 447 2 1095 7222 0.002 53 9 7 2;
#X msg 1009 187 0.36 475.5 7600 0.001 0.001 0.7 0.5;
#X msg 997 95 2 1095 8422 0.002 53 7 2 0.2;
#X msg 986 118 2 1095 7222 0.002 53 7 2 0.2;
#X msg 974 145 2 1095 3222 0.002 53 7 2 0.2;
#X msg 989 336 1.79 65.79 825 0.001 311 0.12 0.28;
#X msg 982 413 0.36 475.5 7600 0.001 0.001 0.7 0.5;
#X msg 1009 301 0.43 193.5 5745 0.001 41 0.7 0.5;
#X msg 1001 273 1.8 419.79 5408 0.001 1025 0.15 0.64;
#X msg 997 243 1.8 419.79 5408 0.001 1025 0.15 1.33;
#X msg 991 211 1.8 419.79 5408 0.001 1025 1 0.68;
#X msg 1002 474 1.97 693.01 876 0.00097 800 0.12 0.1;
#X obj 173 314 db2amp;
#X obj 119 312 line~;
#X msg 120 290 \$1 10;
#X obj 103 335 *~;
#N canvas 1049 683 450 300 CLICK 0;
#X obj 90 149 vline~;
#X obj 160 152 noise~;
#X obj 90 183 *~;
#X obj 90 210 outlet~;
#X msg 134 119 0 1;
#X obj 175 55 inlet width ms;
#X obj 135 98 del 0.2;
#X obj 91 16 inlet amplitude;
#X obj 91 49 t f b;
#X msg 90 116 \$1 1;
#X connect 0 0 2 0;
#X connect 1 0 2 1;
#X connect 2 0 3 0;
#X connect 4 0 0 0;
#X connect 5 0 6 1;
#X connect 6 0 4 0;
#X connect 7 0 8 0;
#X connect 8 0 9 0;
#X connect 8 1 6 0;
#X connect 9 0 0 0;
#X restore 112 134 pd CLICK;
#X obj 102 398 outlet~;
#X obj 356 183 sharedval \$0-length;
#X obj 399 216 sharedval \$0-tension;
#X obj 431 242 sharedval \$0-density;
#X obj 452 278 sharedval \$0-radius;
#X obj 483 306 sharedval \$0-young;
#X obj 514 332 sharedval \$0-decayFq;
#X obj 535 359 sharedval \$0-decayAmp;
#X obj 674 358 sharedval \$0-gain;
#X floatatom 671 399 5 0 0 0 - - -;
#X floatatom 184 72 5 0 0 0 - - -;
#X obj 327 511 anyreg \$0-buffer;
#X obj 372 78 r \$0-from-coll;
#X obj 605 860 thisdir;
#X msg 538 965 write \$1;
#X obj 538 935 symbol;
#X obj 594 938 symbol;
#X msg 607 984 read \$1;
#X obj 594 796 loadbang;
#X obj 716 816 openpanel;
#X obj 537 777 savepanel;
#X obj 594 819 t b b;
#X obj 252 761 thisdir;
#X obj 168 796 + 1;
#X obj 132 793 0;
#X msg 146 753 0;
#X obj 131 825 moses 32;
#X obj 383 633 coll zk-strang;
#C restore;
#X obj 383 606 r \$0-to-coll;
#X msg 524 594 clear;
#X obj 502 637 s \$0-to-coll;
#X obj 537 1039 s \$0-to-coll;
#X obj 537 751 r \$0-collwrite?;
#X obj 737 727 r \$0-collread!;
#X obj 716 789 r \$0-collread?;
#X obj 342 807 r \$0-collwrite!;
#X obj 144 703 r \$0-collNew!;
#X obj 732 96 s \$0-from-coll;
#X msg 129 890 \$1 1.8 419.79 5408 0.001 1025 0.15 0.64 0;
#X obj 179 286 r \$0-gain;
#X floatatom 203 140 5 0 0 0 - - -;
#X floatatom 248 143 5 0 0 0 - - -;
#X obj 872 607 coll zk-strang;
#C restore;
#X obj 1039 560 sharedval \$0-presetNo;
#X obj 104 208 strang~ 64;
#X obj 872 557 r \$0-recall-preset!;
#X obj 1039 589 value \$0-preset 0;
#X obj 872 585 value \$0-preset;
#X obj 872 634 s \$0-from-coll;
#X obj 1231 681 anyreg \$0-buffer;
#X obj 1170 707 value \$0-preset;
#X obj 1167 627 r \$0-store-preset!;
#X obj 1168 654 t b b;
#X obj 1170 732 list append;
#X obj 1170 756 coll zk-strang;
#C restore;
#X msg 483 592 open;
#X obj 483 568 r \$0-open-collGui!;
#X obj 796 24 r \$0-init-preset!;
#X obj 252 785 makefilename %s/untitled.coll;
#X obj 605 907 makefilename %s/zk-strang.coll;
#X obj 695 750 bng 15 250 50 0 empty empty empty 17 7 0 10 -262144
-1 -1;
#X obj 712 942 sharedval \$0-collfilename;
#X obj 110 25 inlet force!;
#X obj 687 336 sharedval \$0-clickWidth;
#X obj 372 110 unpack 0 0 0 0 0 0 0 0 0;
#X obj 185 47 r \$0-clickWidth;
#X obj 102 366 *~ 20000;
#X msg 796 51 1.97 491.79 886 0.00172 1066.52 0.12 0.28 0.5;
#X connect 1 0 66 0;
#X connect 2 0 3 0;
#X connect 4 0 2 0;
#X connect 4 0 33 0;
#X connect 5 0 59 0;
#X connect 6 0 59 0;
#X connect 7 0 59 0;
#X connect 8 0 59 0;
#X connect 9 0 59 0;
#X connect 10 0 59 0;
#X connect 11 0 59 0;
#X connect 12 0 59 0;
#X connect 13 0 59 0;
#X connect 14 0 59 0;
#X connect 15 0 59 0;
#X connect 16 0 59 0;
#X connect 17 0 19 0;
#X connect 18 0 20 1;
#X connect 19 0 18 0;
#X connect 20 0 88 0;
#X connect 21 0 66 0;
#X connect 23 0 4 0;
#X connect 24 0 4 1;
#X connect 25 0 4 2;
#X connect 26 0 4 3;
#X connect 27 0 4 4;
#X connect 28 0 4 5;
#X connect 29 0 4 6;
#X connect 30 0 31 0;
#X connect 30 0 4 7;
#X connect 32 0 21 1;
#X connect 34 0 86 0;
#X connect 35 0 81 0;
#X connect 36 0 53 0;
#X connect 37 0 36 0;
#X connect 38 0 39 0;
#X connect 39 0 53 0;
#X connect 40 0 43 0;
#X connect 41 0 38 1;
#X connect 41 0 39 0;
#X connect 41 0 83 0;
#X connect 42 0 36 0;
#X connect 42 0 37 1;
#X connect 42 0 83 0;
#X connect 43 0 38 0;
#X connect 43 1 35 0;
#X connect 44 0 80 0;
#X connect 45 0 46 0;
#X connect 46 0 48 0;
#X connect 47 0 46 0;
#X connect 48 0 45 0;
#X connect 48 0 60 0;
#X connect 50 0 49 0;
#X connect 51 0 52 0;
#X connect 54 0 42 0;
#X connect 55 0 38 0;
#X connect 56 0 41 0;
#X connect 57 0 37 0;
#X connect 58 0 44 0;
#X connect 58 0 47 0;
#X connect 60 0 53 0;
#X connect 61 0 17 0;
#X connect 62 0 66 1;
#X connect 63 0 66 2;
#X connect 64 0 70 0;
#X connect 65 0 68 0;
#X connect 66 0 20 0;
#X connect 66 1 0 0;
#X connect 67 0 69 0;
#X connect 69 0 64 0;
#X connect 71 0 75 1;
#X connect 72 0 75 0;
#X connect 73 0 74 0;
#X connect 74 0 72 0;
#X connect 74 1 71 0;
#X connect 75 0 76 0;
#X connect 77 0 52 0;
#X connect 78 0 77 0;
#X connect 79 0 89 0;
#X connect 80 0 37 1;
#X connect 80 0 38 1;
#X connect 80 0 83 0;
#X connect 81 0 37 1;
#X connect 81 0 38 1;
#X connect 81 0 83 0;
#X connect 82 0 43 0;
#X connect 84 0 21 0;
#X connect 85 0 4 8;
#X connect 86 0 23 0;
#X connect 86 1 24 0;
#X connect 86 2 25 0;
#X connect 86 3 26 0;
#X connect 86 4 27 0;
#X connect 86 5 28 0;
#X connect 86 6 29 0;
#X connect 86 7 30 0;
#X connect 86 8 85 0;
#X connect 87 0 32 0;
#X connect 88 0 22 0;
#X connect 89 0 59 0;
#X restore 16 451 pd DSP;
#X floatatom 23 168 5 0 0 3 length #0-length-set #0-length;
#X floatatom 74 167 5 0 0 3 tension #0-tension-set #0-tension;
#X floatatom 137 166 5 0 0 3 density #0-density-set #0-density;
#X floatatom 197 166 7 0 0 3 radius #0-radius-set #0-radius;
#X obj 261 31 vsl 15 127 0.1 99999 1 1 \$0-young \$0-young-set young
-12 -10 1 12 -4 -262144 -1 7335 0;
#X floatatom 260 166 6 0 0 3 young #0-young-set #0-young;
#X obj 324 33 vsl 15 127 0.001 30 1 1 \$0-decayFq \$0-decayFq-set decay(hfq)
-12 -10 1 12 -4 -262144 -1 5851 0;
#X floatatom 323 164 6 0 0 3 decay(hfq) #0-decayFq-set #0-decayFq;
#X obj 404 30 vsl 15 127 0.001 50 1 1 \$0-decayAmp \$0-decayAmp-set
decay(amp) -12 -10 1 12 -4 -262144 -1 6562 0;
#X floatatom 403 165 6 0 0 3 decay(amp) #0-decayAmp-set #0-decayAmp
;
#X obj 553 31 vsl 15 127 -40 30 0 1 \$0-gain \$0-gain-set gain(db)
-12 -10 1 12 -241291 -262144 -1 7236 0;
#X floatatom 552 165 6 0 0 3 gain(db) #0-gain-set #0-gain;
#X obj 17 213 cnv 15 200 180 empty empty empty 20 12 0 14 -233017 -66577
0;
#X obj 53 294 nbx 5 18 -1e+37 1e+37 0 0 \$0-presetNo \$0-presetNo-set
preset_no. 80 8 1 16 -241291 -1 -1 9 256;
#X obj 54 265 bng 24 250 50 0 \$0-recall-preset! empty recall 30 10
0 14 -4034 -1 -1;
#X obj 55 318 bng 24 250 50 0 \$0-store-preset! empty store 30 10 0
14 -258113 -1 -1;
#X obj 23 364 bng 18 250 50 0 \$0-open-collGui! empty editPresets 30
10 0 14 -257985 -1 -1;
#X obj 21 218 bng 14 250 50 0 \$0-init-preset! empty init-preset 20
6 0 12 -4032 -1 -1;
#X obj 224 213 cnv 15 360 140 empty empty empty 20 12 0 14 -233017
-66577 0;
#X symbolatom 234 257 56 0 0 0 - #0-collfilename-set #0-collfilename
;
#X obj 238 230 bng 15 250 50 0 \$0-collwrite! empty Write_COLL 22 6
1 14 -262144 -1 -1;
#X obj 404 230 bng 15 250 50 0 \$0-collread! empty Read_COLL 22 6 1
14 -262144 -1 -1;
#X obj 237 310 bng 15 250 50 0 \$0-collwrite? empty SaveAs 22 6 1 14
-262144 -1 -1;
#X obj 237 287 bng 15 250 50 0 \$0-collread? empty OpenOther 22 6 1
14 -262144 -1 -1;
#X obj 406 292 bng 15 250 50 0 \$0-collNew! empty Init-COLL 22 6 1
14 -262144 -1 -1;
#X obj 16 476 outlet~;
#X obj 160 416 inlet recallPreset;
#X obj 160 442 t b f;
#X obj 161 487 s \$0-recall-preset!;
#X obj 188 465 s \$0-presetNo;
#X obj 476 30 vsl 15 127 0.001 50 1 1 \$0-clickWidth \$0-clickWidth-set
clickWidth -12 -10 1 12 -4 -262144 -1 7237 0;
#X floatatom 475 165 6 0 0 3 clickWidth #0-clickWidth-set #0-clickWidth
;
#X obj 16 428 inlet force!;
#X text 12 410 1 == normal-maximum;
#X connect 4 0 30 0;
#X connect 31 0 32 0;
#X connect 32 0 33 0;
#X connect 32 1 34 0;
#X connect 37 0 4 0;
#X coords 0 -1 1 1 600 400 2 0 0;
